<svg xmlns="http://www.w3.org/2000/svg" width="24" height="24" viewBox="0 0 24 24"><defs><style>.a{fill:#fff;}</style></defs><path class="a" d="M17.377,0H6.623A6.631,6.631,0,0,0,0,6.623V17.377A6.631,6.631,0,0,0,6.623,24H17.377A6.631,6.631,0,0,0,24,17.377V6.623A6.631,6.631,0,0,0,17.377,0Zm4.494,17.377a4.5,4.5,0,0,1-4.494,4.494H6.623a4.5,4.5,0,0,1-4.494-4.494V6.623A4.5,4.5,0,0,1,6.623,2.129H17.377a4.5,4.5,0,0,1,4.494,4.494V17.377Z"/><path class="a" d="M47.152,40.97a6.184,6.184,0,1,0,6.184,6.184A6.191,6.191,0,0,0,47.152,40.97Zm0,10.239a4.055,4.055,0,1,1,4.055-4.055A4.059,4.059,0,0,1,47.152,51.209Z" transform="translate(-35.152 -35.154)"/><path class="a" d="M120.483,28.251a1.561,1.561,0,1,0,1.1.457A1.568,1.568,0,0,0,120.483,28.251Z" transform="translate(-102.039 -24.24)"/></svg>