<svg xmlns="http://www.w3.org/2000/svg" xmlns:xlink="http://www.w3.org/1999/xlink" width="262" height="189" viewBox="0 0 262 189"><defs><style>.a{fill:#3da8c0;}.b,.f{fill:none;}.c{clip-path:url(#a);}.d,.g,.h,.l,.n{fill:#fff;}.e{opacity:0.45;}.f,.g,.l{stroke:#000;}.f,.l{stroke-miterlimit:10;}.f{stroke-width:0.5px;}.g{stroke-width:0.098px;}.i{clip-path:url(#b);}.j{fill:url(#c);}.k{clip-path:url(#cu);}.l{stroke-width:0.3px;}.m,.n{stroke:none;}</style><clipPath id="a"><rect class="a" width="262" height="186" rx="2" transform="translate(4333 1226)"/></clipPath><clipPath id="b"><rect class="a" width="262" height="189" rx="2" transform="translate(4333 1226)"/></clipPath><linearGradient id="c" x1="0.5" x2="0.5" y2="1" gradientUnits="objectBoundingBox"><stop offset="0" stop-color="#3da8c0"/><stop offset="1" stop-color="#09667b"/></linearGradient><clipPath id="cu"><path class="b" d="M462.8,452.688a6,6,0,1,1-6-6"/></clipPath></defs><g transform="translate(-8404 -2520)"><g class="c" transform="translate(4071 1294)"><g class="d" transform="translate(4301.366 1194.842)"><path class="m" d="M 104.591438293457 216.2437591552734 C 89.83187866210938 216.2437591552734 75.67411041259766 212.9717864990234 62.51140594482422 206.5187683105469 C 56.31046676635742 203.4787292480469 50.3404655456543 199.7223510742188 44.7672004699707 195.3539733886719 C 39.34031677246094 191.1002960205078 34.23743438720703 186.2262878417969 29.60028839111328 180.8673553466797 C 11.10664176940918 159.4951782226563 0.4999946355819702 131.1087951660156 0.4999946355819702 102.9867935180664 C 0.4999946355819702 96.03555297851563 1.257553458213806 89.08876037597656 2.751612186431885 82.33943939208984 C 4.207729816436768 75.76143646240234 6.380553245544434 69.29093933105469 9.20973014831543 63.10773086547852 C 11.98790645599365 57.03590774536133 15.42670059204102 51.17940902709961 19.43058204650879 45.7009391784668 C 23.39705276489258 40.27358627319336 27.95246505737305 35.16979217529297 32.97031784057617 30.53129196166992 C 37.98884582519531 25.89214515686035 43.51119995117188 21.68026161193848 49.38396453857422 18.01261520385742 C 55.31367111206055 14.30943870544434 61.65290451049805 11.12873268127441 68.2255859375 8.558879852294922 C 74.9202880859375 5.941320896148682 81.92631530761719 3.930938482284546 89.04902648925781 2.583614826202393 C 96.35808563232422 1.201026678085327 103.8810272216797 0.4999972283840179 111.4088745117188 0.4999972283840179 C 118.910758972168 0.4999972283840179 126.5636138916016 1.3100266456604 134.15478515625 2.907585382461548 C 141.5094909667969 4.455379486083984 148.8667297363281 6.754144191741943 156.0221405029297 9.740026473999023 C 163.0176086425781 12.6591739654541 169.8554382324219 16.24902725219727 176.345703125 20.40982055664063 C 182.7618255615234 24.52311515808105 188.8559875488281 29.20532035827637 194.4589691162109 34.32640838623047 C 200.06640625 39.45155715942383 205.1929321289063 45.02646636962891 209.6961364746094 50.89626312255859 C 214.2581787109375 56.84273147583008 218.1937866210938 63.10996627807617 221.3937225341797 69.52391052246094 C 224.6707611083984 76.09243774414063 227.1935882568359 82.85158538818359 228.8921356201172 89.61358642578125 C 230.6469116210938 96.59931945800781 231.5366363525391 103.6511459350586 231.5366363525391 110.5732040405273 C 231.5366363525391 117.4697875976563 230.5496368408203 124.4531173706055 228.6030578613281 131.3292388916016 C 226.7306365966797 137.9433746337891 223.9507904052734 144.5318145751953 220.3407287597656 150.9115295410156 C 216.8440551757813 157.0909118652344 212.5436706542969 163.1204681396484 207.5590209960938 168.8327026367188 C 202.6856384277344 174.4174652099609 197.1393737792969 179.7217102050781 191.0742645263672 184.5980834960938 C 185.0757904052734 189.4208831787109 178.5603179931641 193.8333282470703 171.7088165283203 197.7127685546875 C 164.8454895019531 201.5989685058594 157.6386108398438 204.9538726806641 150.2883453369141 207.6843872070313 C 142.8320007324219 210.4542846679688 135.2120208740234 212.5870208740234 127.6400833129883 214.0233764648438 C 119.8732604980469 215.4967346191406 112.1185531616211 216.2437591552734 104.591438293457 216.2437591552734 Z"/><path class="n" d="M 111.4088745117188 1 C 103.9121398925781 1 96.42047119140625 1.698089599609375 89.1419677734375 3.074905395507813 C 82.04960632324219 4.41650390625 75.07357788085938 6.418228149414063 68.40766906738281 9.024551391601563 C 61.86372375488281 11.58317565917969 55.55235290527344 14.7498779296875 49.64881896972656 18.43670654296875 C 43.80255126953125 22.08778381347656 38.30528259277344 26.28053283691406 33.30970764160156 30.8984375 C 28.31552124023438 35.51509094238281 23.78172302246094 40.59461975097656 19.83425903320313 45.99594116210938 C 15.85023498535156 51.44729614257813 12.4285888671875 57.27449035644531 9.664413452148438 63.31573486328125 C 6.849884033203125 69.46699523925781 4.688323974609375 75.90382385253906 3.239791870117188 82.44749450683594 C 1.753585815429688 89.16140747070313 1 96.07182312011719 1 102.9867935180664 C 1 130.9904174804688 11.56219482421875 159.2575225830078 29.97837829589844 180.5402069091797 C 34.59455871582031 185.8748779296875 39.67399597167969 190.7265625 45.07563781738281 194.9604339599609 C 50.62152099609375 199.307373046875 56.56178283691406 203.0451202392578 62.73149108886719 206.06982421875 C 75.82508850097656 212.4889678955078 89.9088134765625 215.7437591552734 104.591438293457 215.7437591552734 C 112.0873794555664 215.7437591552734 119.8106994628906 214.9996795654297 127.5469055175781 213.5321502685547 C 135.0913391113281 212.1009979248047 142.6841125488281 209.9758148193359 150.1142272949219 207.2156677246094 C 157.4396362304688 204.4944152832031 164.6221923828125 201.1507873535156 171.4624633789063 197.2776794433594 C 178.29052734375 193.4114685058594 184.7834625244141 189.0143127441406 190.7609558105469 184.2083740234375 C 196.80322265625 179.3503723144531 202.3281707763672 174.066650390625 207.1822814941406 168.5039672851563 C 212.1447601318359 162.8171081542969 216.4254913330078 156.8152923583984 219.9055786132813 150.6652526855469 C 223.4960021972656 144.3202514648438 226.2603759765625 137.7688598632813 228.1219635009766 131.1930236816406 C 230.0559997558594 124.3612289428711 231.0366363525391 117.4237289428711 231.0366363525391 110.5732040405273 C 231.0366363525391 103.6921768188477 230.1519622802734 96.68135070800781 228.4071960449219 89.73541259765625 C 226.7174377441406 83.00837707519531 224.2072296142578 76.28335571289063 220.9463195800781 69.74714660644531 C 217.7606201171875 63.36174011230469 213.8420562744141 57.12176513671875 209.2994384765625 51.20059204101563 C 204.8140563964844 45.35401916503906 199.7074890136719 39.8009033203125 194.1216430664063 34.69546508789063 C 188.5395812988281 29.59352111816406 182.4681091308594 24.92875671386719 176.0758514404297 20.83076477050781 C 169.6100463867188 16.68560791015625 162.7982330322266 13.10940551757813 155.82958984375 10.20146179199219 C 148.7030334472656 7.227615356445313 141.3759460449219 4.938201904296875 134.0518493652344 3.396881103515625 C 126.4944381713867 1.806411743164063 118.8762283325195 1 111.4088745117188 1 M 111.4088745117188 0 C 172.9382934570313 0 232.0366363525391 53.69514465332031 232.0366363525391 110.5732040405273 C 232.0366363525391 167.4512023925781 166.120849609375 216.7437591552734 104.591438293457 216.7437591552734 C 43.06199645996094 216.7437591552734 0 159.8648223876953 0 102.9867935180664 C 0 46.10873413085938 49.87947082519531 0 111.4088745117188 0 Z"/></g></g><g class="e" transform="translate(8122.67 2082.875)"><rect class="f" width="11.201" height="11.594" rx="0.5" transform="translate(356.33 457.125)"/><path class="g" d="M366.651,466.518v1.426H357.2v-1.427a.916.916,0,0,1,.581-.854l1.993-.786,1.556,1.716.488-1v0l.108-.223.111.223.488,1,1.554-1.716,1.994.786a.92.92,0,0,1,.579.854"/><path d="M363.319,464.581h0v-.812a4.3,4.3,0,0,1-.363.476l-.193.214a.941.941,0,0,1-.691.306h-.3a.941.941,0,0,1-.691-.306l-.193-.214a4.107,4.107,0,0,1-.367-.482v.817h0l1.215.688.18.1.179-.1Z"/><path d="M361.427,464.693l0,0-.006,0-.007,0,.742.554,1.166-.66h0v-.809s-.276.365-.363.472l-.193.214a.941.941,0,0,1-.691.306h-.295a.788.788,0,0,1-.175-.018.941.941,0,0,1-.176-.053"/><path d="M360.543,462.113c.031.355-.14.66-.383.681s-.464-.249-.495-.6.141-.659.383-.681.465.249.495.6"/><path d="M364.187,462.19c-.03.355-.252.626-.5.6s-.414-.326-.383-.681.253-.625.495-.6.414.326.383.681"/><path class="g" d="M363.934,462.115a3.884,3.884,0,0,1-.976,2.13l-.193.214a.941.941,0,0,1-.691.306h-.3a.943.943,0,0,1-.692-.306l-.192-.214a3.892,3.892,0,0,1-.977-2.13,7.7,7.7,0,0,1,0-1.424,2.034,2.034,0,0,1,4.016,0,7.7,7.7,0,0,1,0,1.424"/><path d="M360.391,459.483s.014-1.331,1.941-.9a3.332,3.332,0,0,1,1.571,1.193,1.84,1.84,0,0,1,.263,1.551,1.706,1.706,0,0,0-.2.7s-.107-.448-.171-.822a1.757,1.757,0,0,0-.392-.848l-.006-.008a1.347,1.347,0,0,0-1.35-.441,2.437,2.437,0,0,0-.8.391.77.77,0,0,0-1.2.407,5.122,5.122,0,0,0-.153,1.239s-1.105-2.324.494-2.461"/><path class="g" d="M364.077,464.877l-1.453,1.913-.7-1.421.179-.1,1.215-.688h0l0,0Z"/><path class="g" d="M359.773,464.877l1.455,1.913.7-1.421-.179-.1-1.215-.688,0,0Z"/><path d="M361.228,467.946l.4-.91-.172-.253-.125-.19.488-1,.108-.223.111.223v0l.488,1-.128.188-.171.255.4.91Z"/><path class="g" d="M362.524,466.593l-.128.188-.469-.963-.473.964-.125-.189.488-1,.108-.224.111.224v0Z"/><path class="h" d="M359.547,466.967a.3.3,0,1,1-.3-.3.3.3,0,0,1,.3.3h0"/></g><g class="e" transform="translate(8141.67 2091.875)"><rect class="f" width="11.201" height="11.594" rx="0.5" transform="translate(356.33 457.125)"/><path class="g" d="M366.651,466.518v1.426H357.2v-1.427a.916.916,0,0,1,.581-.854l1.993-.786,1.556,1.716.488-1v0l.108-.223.111.223.488,1,1.554-1.716,1.994.786a.92.92,0,0,1,.579.854"/><path d="M363.319,464.581h0v-.812a4.3,4.3,0,0,1-.363.476l-.193.214a.941.941,0,0,1-.691.306h-.3a.941.941,0,0,1-.691-.306l-.193-.214a4.107,4.107,0,0,1-.367-.482v.817h0l1.215.688.18.1.179-.1Z"/><path d="M361.427,464.693l0,0-.006,0-.007,0,.742.554,1.166-.66h0v-.809s-.276.365-.363.472l-.193.214a.941.941,0,0,1-.691.306h-.295a.788.788,0,0,1-.175-.018.941.941,0,0,1-.176-.053"/><path d="M360.543,462.113c.031.355-.14.66-.383.681s-.464-.249-.495-.6.141-.659.383-.681.465.249.495.6"/><path d="M364.187,462.19c-.03.355-.252.626-.5.6s-.414-.326-.383-.681.253-.625.495-.6.414.326.383.681"/><path class="g" d="M363.934,462.115a3.884,3.884,0,0,1-.976,2.13l-.193.214a.941.941,0,0,1-.691.306h-.3a.943.943,0,0,1-.692-.306l-.192-.214a3.892,3.892,0,0,1-.977-2.13,7.7,7.7,0,0,1,0-1.424,2.034,2.034,0,0,1,4.016,0,7.7,7.7,0,0,1,0,1.424"/><path d="M360.391,459.483s.014-1.331,1.941-.9a3.332,3.332,0,0,1,1.571,1.193,1.84,1.84,0,0,1,.263,1.551,1.706,1.706,0,0,0-.2.7s-.107-.448-.171-.822a1.757,1.757,0,0,0-.392-.848l-.006-.008a1.347,1.347,0,0,0-1.35-.441,2.437,2.437,0,0,0-.8.391.77.77,0,0,0-1.2.407,5.122,5.122,0,0,0-.153,1.239s-1.105-2.324.494-2.461"/><path class="g" d="M364.077,464.877l-1.453,1.913-.7-1.421.179-.1,1.215-.688h0l0,0Z"/><path class="g" d="M359.773,464.877l1.455,1.913.7-1.421-.179-.1-1.215-.688,0,0Z"/><path d="M361.228,467.946l.4-.91-.172-.253-.125-.19.488-1,.108-.223.111.223v0l.488,1-.128.188-.171.255.4.91Z"/><path class="g" d="M362.524,466.593l-.128.188-.469-.963-.473.964-.125-.189.488-1,.108-.224.111.224v0Z"/><path class="h" d="M359.547,466.967a.3.3,0,1,1-.3-.3.3.3,0,0,1,.3.3h0"/></g><g class="i" transform="translate(4071 1294)"><g transform="translate(4141.427 1090.786)"><path class="j" d="M270.077,165.3a29.72,29.72,0,0,1,.092,4.142,18.305,18.305,0,0,1-.225,2.085,8.691,8.691,0,0,1-.255,1.048,4.346,4.346,0,0,1-.2.527l-.1.216a1.234,1.234,0,0,0-.055.184,2.45,2.45,0,0,0,.368,1.655,8.946,8.946,0,0,0,1.136,1.576l.33.371.171.181.087.089a1.247,1.247,0,0,1,.132.158,1.112,1.112,0,0,1,.19.784,1.1,1.1,0,0,1-.129.385,2.5,2.5,0,0,1-.176.255,3.159,3.159,0,0,1-1.875,1.266l.212-.174a32.542,32.542,0,0,1-1.953,3.251,16.284,16.284,0,0,1-2.41,2.927A5.581,5.581,0,0,1,263.8,187.3a3.072,3.072,0,0,1-.994.221,2.846,2.846,0,0,1-.522-.029l-.475-.085a11.07,11.07,0,0,1-1.872-.5,4.628,4.628,0,0,1-.911-.467,2.281,2.281,0,0,1-.431-.369,1.355,1.355,0,0,1-.191-.265,1.015,1.015,0,0,1-.079-.171.74.74,0,0,1-.047-.274l.675.381a9.051,9.051,0,0,0-2.177,2.62,8.183,8.183,0,0,0-.675,1.574,10.139,10.139,0,0,0-.365,1.668l0,.027a.542.542,0,0,1-1.009.178,20.067,20.067,0,0,1-1.563-3.7,19.817,19.817,0,0,1-.82-3.908,14.175,14.175,0,0,1,.108-3.99,10.833,10.833,0,0,1,1.344-3.716.051.051,0,0,1,.07-.018.053.053,0,0,1,.021.064,13.366,13.366,0,0,0-.586,1.846,13.951,13.951,0,0,0-.292,1.9,16.488,16.488,0,0,0,.182,3.806,21.981,21.981,0,0,0,.964,3.692,24.838,24.838,0,0,0,1.517,3.48l-1.014.206a9.757,9.757,0,0,1,2.38-5.146,8.066,8.066,0,0,1,1.431-1.293l.675.381c0-.086,0-.042,0-.045a.18.18,0,0,0,.017.043.521.521,0,0,0,.077.119,1.471,1.471,0,0,0,.268.254,3.994,3.994,0,0,0,.735.426,10.415,10.415,0,0,0,1.709.61,3.205,3.205,0,0,0,3.242-.857,12.249,12.249,0,0,0,2.363-2.841,22.263,22.263,0,0,0,1.672-3.319.287.287,0,0,1,.187-.167l.025-.007a2.474,2.474,0,0,0,1.364-1.12,1.879,1.879,0,0,0,.1-.178.277.277,0,0,0,.021-.1.3.3,0,0,0-.063-.189.419.419,0,0,0-.035-.037l-.1-.091-.191-.185c-.126-.125-.251-.251-.371-.382a8.432,8.432,0,0,1-1.264-1.756,3.257,3.257,0,0,1-.4-2.295,2.076,2.076,0,0,1,.108-.3l.125-.249a3.547,3.547,0,0,0,.186-.425,7.991,7.991,0,0,0,.276-.94,19.557,19.557,0,0,0,.363-1.987c.188-1.346.315-2.712.417-4.081a.051.051,0,0,1,.054-.048.052.052,0,0,1,.048.047Z" transform="translate(-32.992 -8.967)"/><path class="j" d="M257.744,190.732a11.21,11.21,0,0,0,.891,2.752,5.923,5.923,0,0,0,.766,1.184,7.979,7.979,0,0,0,1.042,1.021,3.373,3.373,0,0,1-1.329-.743,4.059,4.059,0,0,1-.936-1.233,5.015,5.015,0,0,1-.459-1.466A4.225,4.225,0,0,1,257.744,190.732Z" transform="translate(-35.545 -20.97)"/><path class="j" d="M234.738,167.55c-3.865,9.091,1.358,15.015,1.358,15.015h0c-9.558-2.057-14.52,3.695-14.52,3.695h0c-2.575-5.51-8.512-4.7-8.512-4.7s-3.64-3.765,1-6.841c3.251-2.153,3.673-4.151,3.633-5.157a7.676,7.676,0,0,1,.316-2.69,11.721,11.721,0,0,1,1.843-3.5,17.341,17.341,0,0,0,2.941-5.706c1.322-4.557,4.45-11.811,10.9-11.379a16.85,16.85,0,0,1,4.885.251,18.007,18.007,0,0,1,6.192,2.594,23.624,23.624,0,0,1,6.108,5.439,8.555,8.555,0,0,1-1.171,5.311,8.99,8.99,0,0,1-6.357,3.927,3.322,3.322,0,0,1-3.067-1.079,3.079,3.079,0,0,1-.588-1.073,4.407,4.407,0,0,0-2.128-2.735c-1.288-.638-2.864-.445-3.612,3.43C233.34,165.583,233.917,166.984,234.738,167.55Z" transform="translate(-13.897)"/><path class="j" d="M347,292.821a46.338,46.338,0,0,1-5.282.612q-2.642.176-5.284.186c-1.761.009-3.523-.047-5.285-.153a45.82,45.82,0,0,1-5.286-.584,45.843,45.843,0,0,1,5.282-.615c1.761-.116,3.522-.183,5.283-.184s3.523.045,5.284.155a46.35,46.35,0,0,1,5.286.581Z" transform="translate(-67.672 -68.713)"/><path class="j" d="M239.909,244.534c-3.445.287-6.9.437-10.357.54l-1.3.039-.648.017a4.493,4.493,0,0,1-.682-.014,5.9,5.9,0,0,1-2.794-.972,9.083,9.083,0,0,1-2.088-1.913,12.726,12.726,0,0,1-1.531-2.34.593.593,0,0,1-.039-.1l-.011-.036q-1.513-5.079-3.092-10.17-.807-2.54-1.676-5.064l-.926-2.5-1-2.475c-.692-1.639-1.406-3.269-2.165-4.878s-1.561-3.2-2.364-4.786-1.637-3.158-2.479-4.724a4.158,4.158,0,0,0-3.556-2.3l-5.271.2c-1.788.053-3.579.087-5.377.082-1.8-.031-3.6-.084-5.441-.3-.462-.061-.928-.134-1.412-.24a7.3,7.3,0,0,1-.755-.2,3.044,3.044,0,0,1-.928-.472,1.728,1.728,0,0,1-.318-.334,1.432,1.432,0,0,1-.25-.619,1.583,1.583,0,0,1,0-.36l.036-.173a1.771,1.771,0,0,1,.1-.32,2.682,2.682,0,0,1,.248-.471,3.056,3.056,0,0,1,.266-.364,8.489,8.489,0,0,1,1.092-1.072,41.51,41.51,0,0,1,4.555-3.045l4.609-2.694c.757-.451,1.509-.913,2.215-1.4.181-.122.342-.246.521-.376l.592-.413c.206-.123.42-.234.629-.35s.438-.192.657-.284a7.513,7.513,0,0,1,2.763-.44,7.835,7.835,0,0,1,2.685.505.1.1,0,0,1-.056.2l-.009,0a7.845,7.845,0,0,0-5.021.581c-.18.105-.367.194-.541.3l-.506.353-.467.4c-.168.15-.344.316-.519.461-.7.6-1.436,1.124-2.167,1.651-1.461,1.05-2.961,2.015-4.42,3.02a42.659,42.659,0,0,0-4.184,3.089,6.551,6.551,0,0,0-.795.813,1.153,1.153,0,0,0-.124.178.6.6,0,0,0-.062.119c-.017.024.009,0,0,0a.015.015,0,0,0,0-.01.609.609,0,0,0,0-.194.629.629,0,0,0-.205-.411c-.025-.019.116.059.271.1a5.257,5.257,0,0,0,.538.129c.388.075.8.131,1.226.175,1.7.193,3.464.256,5.223.3,1.763.061,3.535.083,5.307.085l2.661-.011,1.331-.016c.449,0,.856-.032,1.418.005a5.685,5.685,0,0,1,4.827,3.457c.715,1.638,1.406,3.286,2.092,4.934l2.041,4.949,2.068,4.933c2.731,6.575,5.977,13,7.875,19.945l-.049-.131a9.9,9.9,0,0,0,2.905,3.619,4.27,4.27,0,0,0,1.99.813,3.868,3.868,0,0,0,.607.04l.643.025,1.286.054c3.431.142,6.863.331,10.305.657a.1.1,0,0,1,.094.111A.1.1,0,0,1,239.909,244.534Z" transform="translate(-0.585 -20.252)"/><path class="j" d="M260.978,249.953c2.821-.078,5.641-.124,8.461-.168l4.23-.07,2.115-.029a11.9,11.9,0,0,1,2.2.139,11.51,11.51,0,0,1,4.158,1.528c.326.2.608.392.905.586a8.958,8.958,0,0,1,.915.679,7.715,7.715,0,0,1,2.64,5.022c.028.193.03.388.043.582l.017.534.1,4.229.193,8.458.154,8.459q.16,8.459.179,16.92l-.019,8.461-.007,2.115c0,.357,0,.7-.009,1.068a7.724,7.724,0,0,1-2.143,5.19,7.5,7.5,0,0,1-3.927,2.161,10.809,10.809,0,0,1-2.2.154l-2.117,0-8.466-.011q-8.465-.02-16.928-.16c-5.642-.107-11.288-.2-16.93-.446s-11.288-.5-16.92-1c-1.409-.111-2.815-.259-4.223-.387s-2.816-.277-4.227-.439l-2.116-.238-.529-.061-.264-.031a1.735,1.735,0,0,1-.2-.037l-.166-.041a5.911,5.911,0,0,1-1.167-.464,6.392,6.392,0,0,1-1.926-1.549,6.9,6.9,0,0,1-1.191-2.139,11.323,11.323,0,0,1-.4-4.579c.094-1.342.1-2.754.1-4.145-.015-2.8-.117-5.6-.275-8.4s-.371-5.6-.616-8.395-.573-5.584-.912-8.369-.74-5.563-1.19-8.333-.957-5.529-1.516-8.278a157.149,157.149,0,0,0-4.144-16.3c-.831-2.678-1.754-5.326-2.731-7.955-1.025-2.608-2.077-5.212-3.308-7.733-.579-1.279-1.254-2.508-1.885-3.762a22.871,22.871,0,0,1-1.723-3.931,18.272,18.272,0,0,1-.8-4.217,6.369,6.369,0,0,1,.208-2.161,2.62,2.62,0,0,1,.52-.981,2.029,2.029,0,0,1,.935-.6.1.1,0,0,1,.069.193l-.007,0a1.932,1.932,0,0,0-1.2,1.474,6.285,6.285,0,0,0-.077,2.038,17.757,17.757,0,0,0,.968,4.037A22.107,22.107,0,0,0,185.5,222.3c.706,1.229,1.419,2.456,2.054,3.724a108.983,108.983,0,0,1,6.635,15.655,175,175,0,0,1,7.493,33.132c.037.287.073.574.154,1.23.616,4.968,1.1,10.328,1.34,15.7.125,2.833.194,5.668.174,8.513-.018,1.428-.04,2.839-.161,4.309-.038.391-.043.669-.067,1.007a6.4,6.4,0,0,0,0,.96,7.056,7.056,0,0,0,.316,1.825A4.558,4.558,0,0,0,205.6,311a4.075,4.075,0,0,0,.79.329l.09.024a.2.2,0,0,0,.059.012l.26.033.521.067,2.083.275c1.387.189,2.778.371,4.178.524s2.793.335,4.193.475c5.6.583,11.207,1.1,16.827,1.5q16.861,1.2,33.794,1.062c2.819-.023,5.637-.089,8.454-.167l2.112-.077a9.883,9.883,0,0,0,2.008-.206,7.149,7.149,0,0,0,1.807-.735,7,7,0,0,0,1.5-1.237,6.422,6.422,0,0,0,1.594-3.456,6.309,6.309,0,0,0,.058-.957c0-.332-.019-.7-.027-1.047l-.065-2.114-.253-8.458q-.208-8.458-.288-16.918l-.08-8.46-.041-8.461-.013-4.23v-.523c-.007-.158,0-.316-.022-.473a6.177,6.177,0,0,0-.145-.936,6.431,6.431,0,0,0-.705-1.761,6.519,6.519,0,0,0-1.2-1.48,7.611,7.611,0,0,0-.766-.6l-.852-.591a10.341,10.341,0,0,0-3.681-1.512,10.817,10.817,0,0,0-2.012-.2l-2.115-.068-4.23-.148c-2.82-.1-5.639-.193-8.459-.324a.1.1,0,0,1,0-.2Z" transform="translate(0 -30.436)"/><path class="j" d="M369.572,305.094l.053,1.535a.083.083,0,1,1-.167.006v0l.011-1.536a.051.051,0,1,1,.1,0Z" transform="translate(-88.208 -74.817)"/><path class="j" d="M369.666,310.843l.046,1.535a.139.139,0,1,1-.277.008v0l0-1.536a.114.114,0,0,1,.229,0Z" transform="translate(-88.196 -77.496)"/><path class="j" d="M369.751,316.6l.046,1.535a.188.188,0,1,1-.375.011v-.006l0-1.536a.163.163,0,1,1,.326,0Z" transform="translate(-88.19 -80.187)"/><path class="j" d="M369.837,322.367l.046,1.535a.237.237,0,0,1-.473.014v-.008l0-1.536a.212.212,0,1,1,.424-.006Z" transform="translate(-88.185 -82.879)"/><path class="j" d="M369.924,328.134l.037,1.535a.27.27,0,0,1-.54.013v-.005l-.006-1.536a.255.255,0,1,1,.509-.007Z" transform="translate(-88.187 -85.576)"/><path class="j" d="M370.008,333.912l.037,1.535a.3.3,0,1,1-.6.014v-.006l-.006-1.536a.286.286,0,1,1,.572-.008Z" transform="translate(-88.197 -88.283)"/><path class="j" d="M370.092,339.689l.037,1.535a.333.333,0,1,1-.665.016v-.007l-.006-1.536a.317.317,0,0,1,.634-.009Z" transform="translate(-88.207 -90.99)"/><path class="j" d="M370.175,345.468l.037,1.535a.364.364,0,1,1-.728.017v-.007l-.006-1.536a.348.348,0,0,1,.7-.01Z" transform="translate(-88.217 -93.698)"/><path class="j" d="M370.259,351.245l.029,1.535a.388.388,0,1,1-.776.015v0l-.013-1.536a.38.38,0,0,1,.759-.01Z" transform="translate(-88.227 -96.405)"/><path class="j" d="M370.341,357.039l.028,1.535a.4.4,0,1,1-.8.014v0l-.015-1.536a.394.394,0,0,1,.788-.011Z" transform="translate(-88.252 -99.127)"/><path class="j" d="M370.422,362.833l.028,1.535a.413.413,0,0,1-.827.015v0l-.015-1.536a.407.407,0,0,1,.814-.011Z" transform="translate(-88.278 -101.85)"/><path class="j" d="M370.5,368.627l.028,1.535a.426.426,0,0,1-.852.015v0l-.015-1.536a.42.42,0,1,1,.839-.012Z" transform="translate(-88.305 -104.574)"/><path class="j" d="M370.586,374.422l.028,1.535a.439.439,0,0,1-.878.016v0l-.015-1.536a.432.432,0,0,1,.865-.012Z" transform="translate(-88.331 -107.298)"/><path class="j" d="M370.667,380.217l.027,1.535a.452.452,0,0,1-.9.016v0l-.015-1.536a.445.445,0,0,1,.89-.012Z" transform="translate(-88.358 -110.022)"/><path class="j" d="M370.748,386.01l.019,1.547a.458.458,0,0,1-.915.011v-.021l-.02-1.524a.458.458,0,0,1,.916-.014Z" transform="translate(-88.384 -112.744)"/><path class="j" d="M369.885,391.912a6.676,6.676,0,0,1-.613,1.524.448.448,0,0,1-.784-.431,5.768,5.768,0,0,0,.522-1.322.453.453,0,1,1,.877.226Z" transform="translate(-87.724 -115.47)"/><path class="j" d="M366.473,397.147a6.707,6.707,0,0,1-1.257,1.052.437.437,0,1,1-.477-.733,5.827,5.827,0,0,0,1.086-.921.442.442,0,1,1,.65.6Z" transform="translate(-85.891 -117.853)"/><path class="j" d="M361.186,400.4a6.669,6.669,0,0,1-1.606.331.427.427,0,0,1-.071-.851,5.806,5.806,0,0,0,1.4-.3.432.432,0,1,1,.283.816Z" transform="translate(-83.337 -119.339)"/><path class="j" d="M355.308,401.1l-1.536.011a.406.406,0,1,1-.013-.812l1.533-.042a.422.422,0,1,1,.026.843Z" transform="translate(-80.624 -119.667)"/><path class="j" d="M349.535,401.187l-1.536,0a.374.374,0,0,1-.008-.748l1.533-.034a.39.39,0,1,1,.02.78Z" transform="translate(-77.921 -119.739)"/><path class="j" d="M343.761,401.244l-1.535-.006a.341.341,0,1,1,0-.683l1.533-.026a.358.358,0,1,1,.014.715Z" transform="translate(-75.218 -119.797)"/><path class="j" d="M337.985,401.27l-1.536-.015a.309.309,0,1,1,0-.618l1.534-.018a.325.325,0,0,1,.009.651Z" transform="translate(-72.513 -119.839)"/><path class="j" d="M332.212,401.264l-1.535-.023a.275.275,0,0,1,0-.551l1.534-.01a.292.292,0,1,1,.005.584Z" transform="translate(-69.81 -119.868)"/><path class="j" d="M326.438,401.228,324.9,401.2a.242.242,0,1,1,.005-.483l1.535,0a.259.259,0,1,1,0,.517Z" transform="translate(-67.106 -119.882)"/><path class="j" d="M320.663,401.154l-1.534-.04a.208.208,0,0,1,.007-.416l1.533.007a.225.225,0,1,1,0,.45Z" transform="translate(-64.403 -119.876)"/><path class="j" d="M314.877,401.038,313.342,401a.193.193,0,0,1,.009-.385l1.534.025a.2.2,0,0,1-.005.4Z" transform="translate(-61.685 -119.837)"/><path class="j" d="M309.086,400.9l-1.535-.048a.179.179,0,1,1,.01-.358l1.534.034a.186.186,0,1,1-.007.372Z" transform="translate(-58.963 -119.78)"/><path class="j" d="M303.294,400.727l-1.535-.057a.166.166,0,0,1,.011-.332l1.534.043a.173.173,0,1,1-.009.345Z" transform="translate(-56.242 -119.707)"/><path class="j" d="M297.5,400.517l-1.532-.064a.154.154,0,0,1,.013-.308l1.532.054a.159.159,0,1,1-.01.318Z" transform="translate(-53.521 -119.615)"/><path class="j" d="M291.7,400.265l-1.534-.064a.164.164,0,1,1,.014-.328h0l1.532.074a.159.159,0,1,1-.014.318Z" transform="translate(-50.781 -119.488)"/><path class="j" d="M285.891,399.985l-1.534-.075a.174.174,0,0,1,.017-.348h0l1.532.085a.169.169,0,0,1-.017.338Z" transform="translate(-48.042 -119.342)"/><path class="j" d="M280.084,399.665l-1.534-.086a.184.184,0,0,1,.021-.368h0l1.532.1a.179.179,0,1,1-.02.358Z" transform="translate(-45.303 -119.176)"/><path class="j" d="M274.274,399.3l-1.534-.093a.2.2,0,0,1,.024-.4h0l1.531.111a.189.189,0,1,1-.024.377Z" transform="translate(-42.56 -118.987)"/><path class="j" d="M268.457,398.889l-1.534-.1a.225.225,0,0,1,.03-.45h0l1.531.128a.212.212,0,0,1-.031.422Z" transform="translate(-39.808 -118.765)"/><path class="j" d="M262.639,398.436l-1.533-.114a.252.252,0,1,1,.037-.5h.006l1.528.141a.239.239,0,1,1-.039.476Z" transform="translate(-37.057 -118.52)"/><path class="j" d="M256.826,397.932l-1.532-.128a.279.279,0,0,1,.046-.557h.006l1.527.154a.266.266,0,0,1-.048.529Z" transform="translate(-34.309 -118.25)"/><path class="j" d="M251.013,397.372l-1.531-.141a.31.31,0,1,1,.057-.618h.008l1.525.171a.295.295,0,0,1-.058.586Z" transform="translate(-31.559 -117.952)"/><path class="j" d="M245.2,396.757l-1.53-.157a.341.341,0,1,1,.069-.679h.009l1.522.187a.326.326,0,1,1-.071.648Z" transform="translate(-28.811 -117.626)"/><path class="j" d="M239.4,396.079l-1.53-.174a.372.372,0,1,1,.084-.74h.01l1.522.2a.357.357,0,0,1-.086.709Z" transform="translate(-26.066 -117.269)"/><path class="j" d="M233.729,394.709a5.133,5.133,0,0,1-1.453-.8.4.4,0,1,1,.487-.625l.005,0a4.355,4.355,0,0,0,1.22.691.386.386,0,0,1-.259.727Z" transform="translate(-23.515 -116.346)"/><path class="j" d="M229.653,390.428a5.814,5.814,0,0,1-.7-1.493.417.417,0,0,1,.8-.246l0,.006a4.989,4.989,0,0,0,.579,1.289.407.407,0,0,1-.681.444Z" transform="translate(-22.015 -114.081)"/><path class="j" d="M228.383,384.613a10.355,10.355,0,0,1,0-1.6.437.437,0,1,1,.872.064v.006a9.491,9.491,0,0,0-.02,1.467.427.427,0,1,1-.852.065Z" transform="translate(-21.738 -111.354)"/><path class="j" d="M228.588,378.747l.032-1.521v-.011a.458.458,0,0,1,.915.019v.006l-.053,1.544a.447.447,0,0,1-.894-.025Z" transform="translate(-21.849 -108.603)"/><path class="j" d="M228.64,372.96l-.018-1.528v-.006a.471.471,0,0,1,.941-.011v0l.006,1.54a.465.465,0,0,1-.93.008Z" transform="translate(-21.865 -105.863)"/><path class="j" d="M228.506,367.163l-.053-1.528v0a.482.482,0,1,1,.964-.033v0l.041,1.538a.477.477,0,0,1-.953.029Z" transform="translate(-21.785 -103.122)"/><path class="j" d="M228.253,361.367l-.081-1.527v0a.494.494,0,0,1,.987-.052v0l.07,1.536a.488.488,0,0,1-.975.048Z" transform="translate(-21.653 -100.383)"/><path class="j" d="M227.9,355.576l-.106-1.527v0a.506.506,0,1,1,1.009-.07v0l.1,1.536a.5.5,0,0,1-1,.066Z" transform="translate(-21.474 -97.645)"/><path class="j" d="M227.452,349.79l-.131-1.524v0a.518.518,0,1,1,1.031-.088v0l.12,1.533a.512.512,0,0,1-1.02.084Z" transform="translate(-21.251 -94.911)"/><path class="j" d="M226.914,344.009l-.154-1.523v0a.529.529,0,0,1,1.053-.107v0l.143,1.532a.523.523,0,1,1-1.042.1Z" transform="translate(-20.986 -92.179)"/><path class="j" d="M226.286,338.237l-.177-1.519v0a.541.541,0,1,1,1.075-.125v0l.167,1.528a.535.535,0,1,1-1.063.12Z" transform="translate(-20.679 -89.452)"/><path class="j" d="M225.586,332.491l-.193-1.518v0a.541.541,0,1,1,1.072-.138l.2,1.526a.543.543,0,1,1-1.076.14v0Z" transform="translate(-20.341 -86.742)"/><path class="j" d="M224.811,326.753l-.217-1.515v0a.536.536,0,0,1,1.061-.154l.223,1.523a.538.538,0,1,1-1.065.156v0Z" transform="translate(-19.965 -84.039)"/><path class="j" d="M223.943,321.026l-.242-1.512v0a.532.532,0,1,1,1.049-.169l.248,1.52a.534.534,0,1,1-1.054.172v0Z" transform="translate(-19.543 -81.341)"/><path class="j" d="M222.981,315.316l-.267-1.505v0a.527.527,0,0,1,1.038-.185l.273,1.513a.529.529,0,0,1-1.042.188v0Z" transform="translate(-19.078 -78.653)"/><path class="j" d="M221.922,309.627l-.293-1.5v0a.522.522,0,1,1,1.025-.2l.3,1.51a.525.525,0,1,1-1.029.2h0Z" transform="translate(-18.566 -75.973)"/><path class="j" d="M220.761,303.955l-.321-1.5v0a.518.518,0,0,1,1.013-.219l.327,1.505a.52.52,0,0,1-1.017.221h0Z" transform="translate(-18.005 -73.302)"/><path class="j" d="M219.492,298.3l-.35-1.49v0a.514.514,0,0,1,1-.236l.357,1.5a.516.516,0,1,1-1,.239v0Z" transform="translate(-17.393 -70.641)"/><path class="j" d="M218.124,292.69l-.372-1.484V291.2a.5.5,0,1,1,.965-.249l.395,1.489a.509.509,0,1,1-.984.261v0Z" transform="translate(-16.737 -68.003)"/><path class="j" d="M216.657,287.106l-.4-1.476v-.005a.478.478,0,0,1,.919-.258l.427,1.481a.488.488,0,1,1-.938.271v0Z" transform="translate(-16.029 -65.384)"/><path class="j" d="M215.066,281.558l-.438-1.466,0-.005a.457.457,0,1,1,.873-.267l.461,1.471a.467.467,0,1,1-.891.28v0Z" transform="translate(-15.263 -62.783)"/><path class="j" d="M213.341,276.05l-.474-1.455,0-.005a.436.436,0,1,1,.827-.275l.5,1.459a.446.446,0,1,1-.845.288v0Z" transform="translate(-14.432 -60.202)"/><path class="j" d="M211.478,270.587l-.512-1.442,0-.005a.415.415,0,0,1,.78-.283l.536,1.445a.425.425,0,0,1-.8.3v0Z" transform="translate(-13.535 -57.642)"/><path class="j" d="M209.465,265.179l-.553-1.426,0-.005a.394.394,0,0,1,.732-.29l.577,1.43a.4.4,0,1,1-.75.3v0Z" transform="translate(-12.567 -55.111)"/><path class="j" d="M207.3,259.839l-.59-1.411,0-.005a.366.366,0,1,1,.672-.29l.626,1.409a.383.383,0,1,1-.7.311l0-.006Z" transform="translate(-11.527 -52.615)"/><path class="j" d="M204.979,254.574l-.637-1.391,0-.005a.332.332,0,1,1,.6-.283l.673,1.387a.349.349,0,0,1-.628.3l0-.005Z" transform="translate(-10.412 -50.163)"/><path class="j" d="M202.477,249.392l-.687-1.367,0-.005a.3.3,0,1,1,.529-.273l.723,1.362a.315.315,0,0,1-.556.3l0,0Z" transform="translate(-9.209 -47.752)"/><path class="j" d="M199.8,244.3c-.246-.442-.486-.9-.722-1.362a.263.263,0,1,1,.467-.245l0,0c.238.443.484.886.745,1.331a.281.281,0,1,1-.484.284l0,0Z" transform="translate(-7.934 -45.379)"/><path class="j" d="M197.222,239.131l-.655-1.4a.228.228,0,1,1,.411-.2l0,0,.685,1.373,0,0a.246.246,0,0,1-.441.22Z" transform="translate(-6.755 -42.957)"/><path class="j" d="M194.844,233.885l-.607-1.416a.179.179,0,1,1,.326-.146v0l.65,1.39v0a.2.2,0,1,1-.369.172Z" transform="translate(-5.66 -40.512)"/><path class="j" d="M192.664,228.555l-.543-1.442a.129.129,0,1,1,.24-.1l0,0,.586,1.416,0,0a.154.154,0,0,1-.285.118Z" transform="translate(-4.667 -38.024)"/><path class="j" d="M190.869,223.08l-.379-1.5a.079.079,0,1,1,.153-.041l0,.01.421,1.468,0,.009a.1.1,0,1,1-.2.058Z" transform="translate(-3.902 -35.454)"/><path class="j" d="M190.57,218.537a.472.472,0,0,1,.266-.21.051.051,0,0,1,.064.034.052.052,0,0,1-.033.064.364.364,0,0,0-.2.169.055.055,0,1,1-.095-.055Z" transform="translate(-3.937 -33.968)"/><path class="j" d="M268.723,283.8a20.58,20.58,0,0,1-3.413.571c-1.137.1-2.273.145-3.409.135s-2.271-.072-3.406-.195a20.307,20.307,0,0,1-3.4-.634,20.3,20.3,0,0,1,3.413-.573c1.137-.1,2.273-.145,3.409-.133s2.271.074,3.406.2a20.573,20.573,0,0,1,3.4.632Z" transform="translate(-34.334 -64.417)"/><path class="j" d="M224.89,401.549c.2,1.6.282,3.2.346,4.8s.089,3.2.029,4.8-.222,3.2-.26,4.8c0,.4-.016.8-.01,1.2a2.642,2.642,0,0,0,.155,1.122,2.1,2.1,0,0,0,1.632,1.289,2.155,2.155,0,0,0,1.026-.116,2.121,2.121,0,0,0,.815-.577,1.99,1.99,0,0,0,.437-.866,2.129,2.129,0,0,0,.049-.48l-.013-.6c-.035-1.6-.078-3.2-.064-4.8.043-3.2.172-6.4.495-9.6a.051.051,0,0,1,.1,0c.323,3.2.452,6.4.495,9.6.014,1.6-.029,3.2-.064,4.8l-.013.6a2.773,2.773,0,0,1-.109.706,2.7,2.7,0,0,1-3.268,1.879,2.659,2.659,0,0,1-1.845-1.717,2.893,2.893,0,0,1-.133-.627c-.014-.219-.009-.416-.007-.615.006-.4-.007-.8-.01-1.2-.038-1.6-.187-3.2-.26-4.8s-.027-3.2.029-4.8.15-3.2.346-4.8a.052.052,0,0,1,.1,0Z" transform="translate(-19.867 -120.256)"/><path class="j" d="M363,407.807c.2,1.366.281,2.732.346,4.1s.089,2.732.029,4.1-.229,2.732-.26,4.1a2.08,2.08,0,0,0,.72,1.7,2.05,2.05,0,0,0,3.375-1.326c.025-.247,0-.618,0-.955-.035-1.366-.078-2.732-.064-4.1a79.823,79.823,0,0,1,.495-8.2.052.052,0,0,1,.1,0,79.832,79.832,0,0,1,.495,8.2c.014,1.366-.029,2.732-.064,4.1a8.34,8.34,0,0,1-.063,1.091,2.684,2.684,0,0,1-5.323-.512c-.032-1.366-.2-2.732-.26-4.1s-.027-2.732.029-4.1.15-2.732.346-4.1a.052.052,0,0,1,.1,0Z" transform="translate(-84.923 -122.931)"/><path class="j" d="M230.275,217.94a6.139,6.139,0,0,1,1.3-1.509,10.368,10.368,0,0,1,1.63-1.156,12.706,12.706,0,0,1,3.757-1.352,19.549,19.549,0,0,1,3.976-.4c.664.029,1.33.054,1.994.1l1.979.23a.373.373,0,0,1,.216.1l.014.014c1.06,1.011,2.131,2.01,3.181,3.031l-.379-.125a13.438,13.438,0,0,1,5.3.655,15.507,15.507,0,0,1,4.67,2.465c.351.265.667.575,1,.86.162.148.334.285.488.441l.443.486c.288.33.605.634.876.976l.782,1.051c.127.178.268.345.385.529l.338.56.676,1.119c.4.771.769,1.561,1.155,2.341l0,0,0,.009a15.087,15.087,0,0,0,1.242,2.668,6.594,6.594,0,0,0,.874,1.152,2.277,2.277,0,0,0,1.124.713.242.242,0,0,1,.192.283l-.008.032,0,.008a41.525,41.525,0,0,1-2.085,4.924,35.27,35.27,0,0,1-2.745,4.6,25.4,25.4,0,0,1-3.569,4.052,16.471,16.471,0,0,1-4.626,2.914.52.52,0,0,1-.541-.093l-.008-.007c-1.822-1.62-3.561-3.3-5.234-5.054s-3.275-3.578-4.785-5.479c-.748-.956-1.478-1.928-2.165-2.931s-1.312-2.051-1.885-3.127a17.256,17.256,0,0,1-1.4-3.378,7.808,7.808,0,0,1-.275-3.626.051.051,0,0,1,.06-.04.053.053,0,0,1,.041.057,7.948,7.948,0,0,0,.526,3.5,19.166,19.166,0,0,0,1.554,3.21,47.274,47.274,0,0,0,4.223,5.789c1.542,1.833,3.19,3.579,4.866,5.294s3.416,3.381,5.193,4.971l-.548-.1a15.555,15.555,0,0,0,4.347-2.646,25.493,25.493,0,0,0,3.5-3.831,37.287,37.287,0,0,0,2.829-4.413,38.634,38.634,0,0,0,2.26-4.747l.181.323a2.715,2.715,0,0,1-1.337-.9,7.376,7.376,0,0,1-.882-1.255,15.424,15.424,0,0,1-1.235-2.757l0,.013c-.375-.772-.71-1.566-1.118-2.321l-.677-1.1-.338-.547c-.116-.18-.26-.341-.39-.511l-.8-1.007c-.275-.327-.593-.616-.891-.921l-.453-.451c-.157-.144-.331-.269-.495-.4-.337-.26-.655-.545-1.006-.783a14.908,14.908,0,0,0-4.57-2.141,14.24,14.24,0,0,0-4.947-.521l-.022,0a.462.462,0,0,1-.358-.127c-1.055-1.015-2.09-2.052-3.136-3.077l.23.115-1.922-.259c-.643-.052-1.287-.089-1.931-.129a21.393,21.393,0,0,0-3.849.228,13.525,13.525,0,0,0-3.68,1.109,10.035,10.035,0,0,0-1.649,1,6.619,6.619,0,0,0-1.379,1.35l0,0a.051.051,0,0,1-.085-.056Z" transform="translate(-22.64 -31.706)"/><path class="j" d="M250.025,224.745a5.844,5.844,0,0,1,1.166-1.442,6.921,6.921,0,0,1,1.538-1.07,5.536,5.536,0,0,1,1.8-.557,4.494,4.494,0,0,1,1.855.139,9.281,9.281,0,0,0-1.782.253,7.872,7.872,0,0,0-1.644.621,14.071,14.071,0,0,0-2.933,2.054Z" transform="translate(-31.947 -35.528)"/><path class="j" d="M277.411,245.874a42.988,42.988,0,0,0,6.039,6.187,22.36,22.36,0,0,0,7.366,4.247,11.055,11.055,0,0,0,4.137.5,10.578,10.578,0,0,0,3.981-1.146,14.5,14.5,0,0,0,5.809-5.944A18.521,18.521,0,0,0,307,241.547l.1-8.69,0-2.175a11.319,11.319,0,0,1,.147-2.2,13.7,13.7,0,0,1,.494-2.15,20.652,20.652,0,0,1,.918-2c.655-1.3,1.338-2.576,1.958-3.878a17.049,17.049,0,0,0,1.455-3.988.339.339,0,0,1,.015-.057l0-.01,1.661-4.466.8-2.238a1.65,1.65,0,0,0,.123-.463.994.994,0,0,0-.048-.4.771.771,0,0,0-.5-.506c-.393-.147-1.012.365-1.436.947a11.875,11.875,0,0,0-1.16,1.965,19.635,19.635,0,0,1-2.614,4.132,8.4,8.4,0,0,1-1.893,1.692,4.008,4.008,0,0,1-1.273.53,2.075,2.075,0,0,1-1.556-.255,2.683,2.683,0,0,1-.949-2.692,4.945,4.945,0,0,1,.4-1.271l.138-.286c.04-.078.076-.158.11-.238a3.518,3.518,0,0,0,.166-.49,2.913,2.913,0,0,0,.087-.995.811.811,0,0,0-.075-.306c-.008-.015.024.028.05.026s.011,0-.027.009a2.31,2.31,0,0,0-.769.509,5.169,5.169,0,0,0-.709.814,11.693,11.693,0,0,0-1.7,4.192l.006-.1.168,3.834.084,1.916.042.958a7.617,7.617,0,0,1,.009.988,14.011,14.011,0,0,1-1.111,3.769c-.491,1.191-1.051,2.346-1.6,3.5l0,.009-.011.02c-1.223,1.823-2.44,3.65-3.681,5.462a.051.051,0,0,1-.087-.055c1.106-1.9,2.237-3.779,3.361-5.665l-.016.029c.512-1.172,1.028-2.335,1.471-3.522a13.545,13.545,0,0,0,.941-3.585,7.762,7.762,0,0,0-.042-.925l-.063-.955-.126-1.909-.252-3.817a.445.445,0,0,1,.006-.1,14.534,14.534,0,0,1,.65-2.385,10.145,10.145,0,0,1,1.119-2.239,6.2,6.2,0,0,1,.844-.989,3.117,3.117,0,0,1,1.221-.766,1.084,1.084,0,0,1,.561-.005.959.959,0,0,1,.524.366,1.685,1.685,0,0,1,.279.818,3.967,3.967,0,0,1-.1,1.37,4.6,4.6,0,0,1-.209.641c-.042.1-.088.205-.137.305l-.118.252a4.17,4.17,0,0,0-.309,1,2.153,2.153,0,0,0,.034.939,1.294,1.294,0,0,0,.434.666c.36.261,1.064.087,1.655-.291a7.761,7.761,0,0,0,1.659-1.465,18.633,18.633,0,0,0,2.518-3.878,12.8,12.8,0,0,1,1.291-2.117,4.47,4.47,0,0,1,.948-.936,1.76,1.76,0,0,1,1.53-.317,1.707,1.707,0,0,1,1.113,1.12,1.9,1.9,0,0,1,.082.775,2.513,2.513,0,0,1-.186.684l-.86,2.233c-.586,1.481-1.169,2.96-1.782,4.43l.019-.067a17.568,17.568,0,0,1-1.647,4.114c-.67,1.3-1.388,2.558-2.077,3.829a21.275,21.275,0,0,0-.953,1.922,12.87,12.87,0,0,0-.506,2.078,10.9,10.9,0,0,0-.169,2.134l-.025,2.175c0,2.9-.047,5.789.047,8.708a19.054,19.054,0,0,1-2.026,8.528,16.558,16.558,0,0,1-2.523,3.661,12.468,12.468,0,0,1-3.549,2.741,11.341,11.341,0,0,1-4.338,1.188,11.886,11.886,0,0,1-4.439-.6,21.6,21.6,0,0,1-7.488-4.589,33.832,33.832,0,0,1-3.076-3.111,34.65,34.65,0,0,1-2.684-3.44.051.051,0,0,1,.014-.071A.053.053,0,0,1,277.411,245.874Z" transform="translate(-44.804 -28.805)"/><path class="j" d="M299.351,252.748c.994.756,1.93,1.581,2.846,2.426s1.795,1.731,2.653,2.635,1.677,1.848,2.454,2.824a33.715,33.715,0,0,1,2.189,3.033c-.429-.455-.817-.94-1.246-1.391-.406-.469-.823-.93-1.243-1.387-.843-.91-1.672-1.832-2.528-2.73Z" transform="translate(-55.183 -50.183)"/><path class="j" d="M275.56,214.536a53.988,53.988,0,0,1,8.815-5.3,42.8,42.8,0,0,1,4.771-1.98,26.361,26.361,0,0,1,5.036-1.23,43.552,43.552,0,0,1,5.142-.393c.43-.01.861-.008,1.292.014l.323.015a1.388,1.388,0,0,1,.355.071,1.3,1.3,0,0,1,.587.417,1.329,1.329,0,0,1-.628,2.091l-.3.1c-1.621.549-3.246,1.085-4.887,1.588-.822.246-1.646.491-2.488.689-.421.1-.845.193-1.279.27a5.825,5.825,0,0,1-1.4.11.451.451,0,0,1,.025-.9h.035l7.322-.091h.007a.5.5,0,0,1,.254.067,1.869,1.869,0,0,1,.435.348,1.279,1.279,0,0,1,.3.576,1.262,1.262,0,0,1-.422,1.164,4.7,4.7,0,0,1-1.482.853,14.05,14.05,0,0,1-1.489.461c-.5.142-.995.229-1.492.345l.259-.14a13.935,13.935,0,0,1-1.831,1.45,11.872,11.872,0,0,1-2.054,1.12,6.168,6.168,0,0,1-2.34.515,3.656,3.656,0,0,1-2.3-.81l.354.012c-.8.487-1.6.988-2.409,1.463s-1.613.965-2.43,1.432a.051.051,0,0,1-.056-.085c.75-.569,1.512-1.118,2.269-1.675s1.527-1.1,2.29-1.644a.288.288,0,0,1,.332,0l.022.016a2.965,2.965,0,0,0,1.912.527,5.37,5.37,0,0,0,2.007-.54,10.974,10.974,0,0,0,1.847-1.115,16.4,16.4,0,0,0,1.651-1.4.539.539,0,0,1,.24-.135l.019,0c.475-.122.963-.217,1.426-.36a14.376,14.376,0,0,0,1.37-.45,3.855,3.855,0,0,0,1.117-.611c.141-.127.114-.175.122-.156.006,0-.013-.033-.045-.077a.968.968,0,0,0-.147-.122l.26.066-7.322-.091.06-.9a5.293,5.293,0,0,0,1.152-.055c.41-.055.824-.127,1.238-.208.827-.167,1.659-.342,2.488-.537q2.486-.588,4.946-1.309l.307-.092a.986.986,0,0,0,.248-.111.974.974,0,0,0,.359-.4,1.01,1.01,0,0,0-.118-1.043.975.975,0,0,0-.44-.319,1.074,1.074,0,0,0-.273-.05l-.317-.01c-.422-.015-.847-.012-1.27.005a32.934,32.934,0,0,0-5.043.69,35.645,35.645,0,0,0-4.843,1.455q-2.389.848-4.714,1.9c-3.1,1.384-6.137,2.934-9.117,4.607a.051.051,0,0,1-.07-.017A.053.053,0,0,1,275.56,214.536Z" transform="translate(-43.966 -27.988)"/><path class="j" d="M325.8,194.037l-4.489,6.813c.855,1.459-1.055,1.9-1.055,1.9l-2.176,2.57s.619,1.029-1.121,1.612l2.759,1.2s.937-2.81,2.36-3.6l-1.177-.374,5.3-8.656,7.167.732-5.308,10.2-4.709-1.495a4.395,4.395,0,0,1-.625,2.585l-.3,1.244,3.553,1.147a60.4,60.4,0,0,0,3.773-5.18c1.1-1.879,2.089-3.368,2.795-3.174l3.962-6.788ZM319.73,206.4a.768.768,0,1,1,.744-.768.768.768,0,0,1-.744.768ZM326,208.488a.768.768,0,1,1,.739-.768.768.768,0,0,1-.739.768Z" transform="translate(-63.476 -22.527)"/><path class="j" d="M282.42,218.422a20.441,20.441,0,0,1,2.619,2.222,20.207,20.207,0,0,1,2.26,2.587,20.2,20.2,0,0,1-2.619-2.222A20.445,20.445,0,0,1,282.42,218.422Z" transform="translate(-47.207 -34.013)"/><path class="j" d="M401.689,282.812c-2.513-1.254-21.464-37.184-21.464-37.184-3.015-5.564-6.962-8.329-10.719-9.608a17.761,17.761,0,0,0-15.444,2.119L332.583,252.3c.333,6.547-1.3,9-1.3,9l18.121.814c7,1.955,6.726,7.617,6.726,7.617l.573,41.694c11.63,5.646,26.025,0,26.025,0L380.6,299.756l-2.073-11.42c-.711-3.8-1.423-7.591-2.257-11.359-.394-1.889-.845-3.762-1.326-5.631s-.993-3.721-1.592-5.544a35.958,35.958,0,0,0-2.15-5.324,10.6,10.6,0,0,0-1.582-2.365,3.93,3.93,0,0,0-1.116-.855,1.513,1.513,0,0,0-1.367-.051,1.565,1.565,0,0,1,1.423-.087,4.064,4.064,0,0,1,1.249.8,11.171,11.171,0,0,1,1.828,2.309,31.807,31.807,0,0,1,2.467,5.308,85.2,85.2,0,0,1,3.163,11.221c.824,3.793,1.495,7.617,2.048,11.451s.967,7.689,1.285,11.548C390.391,298,401.689,282.812,401.689,282.812Z" transform="translate(-70.227 -41.884)"/><path class="b" d="M412.524,319.223l-2.073-11.42c-.711-3.8-1.423-7.591-2.257-11.359-.394-1.889-.845-3.762-1.326-5.631s-.993-3.721-1.592-5.544a35.949,35.949,0,0,0-2.15-5.324,10.6,10.6,0,0,0-1.582-2.365,3.931,3.931,0,0,0-1.116-.855,1.513,1.513,0,0,0-1.367-.051,1.565,1.565,0,0,1,1.423-.087,4.065,4.065,0,0,1,1.249.8,11.17,11.17,0,0,1,1.827,2.309A31.8,31.8,0,0,1,406.028,285a85.22,85.22,0,0,1,3.163,11.221c.824,3.793,1.495,7.617,2.048,11.451S412.207,315.364,412.524,319.223Z" transform="translate(-102.153 -61.351)"/><path class="j" d="M378.286,391.028c.141,2.373.2,4.751.12,7.135a21.077,21.077,0,0,1-.36,3.608,3.816,3.816,0,0,1-.139.471l-.115.251-.06.124a.4.4,0,0,1-.019.046.616.616,0,0,0,.1.5,3.662,3.662,0,0,0,1.123,1.1,7.455,7.455,0,0,0,6.414.874,7.874,7.874,0,0,0,.775-.311c.273-.129.553-.255.835-.372a11.969,11.969,0,0,1,1.747-.566,12.124,12.124,0,0,1,3.638-.271,14.2,14.2,0,0,1,3.558.641,11.757,11.757,0,0,1,1.678.675,12.326,12.326,0,0,0,1.634.638,29.065,29.065,0,0,0,3.435.856c1.161.222,2.329.414,3.5.542a35.066,35.066,0,0,0,7.047.132,10.738,10.738,0,0,0,3.318-.766,2.564,2.564,0,0,0,1.157-.936,1.722,1.722,0,0,0,.1-1.355l.08.158a6.4,6.4,0,0,0-.74-.711c-.272-.232-.564-.444-.857-.656a16.833,16.833,0,0,0-1.875-1.116,26.942,26.942,0,0,0-4.076-1.652,40.332,40.332,0,0,0-4.3-1.077c-.724-.158-1.454-.249-2.181-.377a14.61,14.61,0,0,1-2.274-.472,15.289,15.289,0,0,1-4.2-1.942,10.924,10.924,0,0,1-4.821-7.6,15.167,15.167,0,0,1,.036-4.526.051.051,0,0,1,.1.011,15.972,15.972,0,0,0,.3,4.435,10.757,10.757,0,0,0,1.714,4,11.039,11.039,0,0,0,3.141,2.955,14.363,14.363,0,0,0,3.993,1.694,15.63,15.63,0,0,0,2.134.4c.751.12,1.512.2,2.256.355s1.493.28,2.228.482c.741.171,1.47.4,2.2.619a25.739,25.739,0,0,1,4.223,1.786,13.257,13.257,0,0,1,3.74,2.812.35.35,0,0,1,.073.135l.006.023a2.607,2.607,0,0,1-.238,2.081,3.407,3.407,0,0,1-1.582,1.241,10.824,10.824,0,0,1-3.61.712,37.454,37.454,0,0,1-7.155-.448,47.82,47.82,0,0,1-6.985-1.491,16.008,16.008,0,0,1-1.691-.624,10.8,10.8,0,0,0-1.642-.6,13.691,13.691,0,0,0-3.458-.442,11.48,11.48,0,0,0-3.419.422,13.537,13.537,0,0,0-1.612.6c-.263.117-.521.242-.781.374a8.75,8.75,0,0,1-.866.375,7.631,7.631,0,0,1-3.725.34,8.355,8.355,0,0,1-3.463-1.38,4.41,4.41,0,0,1-1.352-1.411,1.761,1.761,0,0,1-.19-.539,1.1,1.1,0,0,1,.078-.664l.081-.152.034-.078.073-.153a3.179,3.179,0,0,0,.118-.379,21.04,21.04,0,0,0,.5-3.449c.181-2.354.29-4.726.376-7.1a.051.051,0,0,1,.016-.036.051.051,0,0,1,.037-.014A.052.052,0,0,1,378.286,391.028Z" transform="translate(-91.713 -112.027)"/><path class="j" d="M436.148,343.83c.5.912.941,1.848,1.365,2.795s.825,1.907,1.17,2.89a29.151,29.151,0,0,1,.9,3,11.737,11.737,0,0,1,.382,3.166,5.38,5.38,0,0,1-.088.825,3.441,3.441,0,0,1-.1.415l-.064.207c-.009.03-.026.078-.028.094a.263.263,0,0,1-.009.042c-.063.244.185.693.493,1.016a6.1,6.1,0,0,0,2.429,1.507,7.321,7.321,0,0,0,2.865.4,7.155,7.155,0,0,0,2.8-.79,12.108,12.108,0,0,1,3.041-.978,13.517,13.517,0,0,1,3.171-.115,14.157,14.157,0,0,1,3.1.549,12.655,12.655,0,0,1,1.481.542,14.316,14.316,0,0,0,1.412.612,29.18,29.18,0,0,0,6.018,1.3,31.474,31.474,0,0,0,6.149.181,16.176,16.176,0,0,0,3-.491,7.592,7.592,0,0,0,1.376-.529,3.4,3.4,0,0,0,1.11-.825,1.888,1.888,0,0,0,.5-1.168,2.61,2.61,0,0,0-.213-1.3,4.244,4.244,0,0,0-.789-1.151,11.292,11.292,0,0,0-1.061-1.045,17.715,17.715,0,0,0-5.172-3.043,26.784,26.784,0,0,0-2.883-.946c-.982-.264-2.02-.53-3.008-.866a33.818,33.818,0,0,1-5.76-2.52,36.676,36.676,0,0,1-5.171-3.551,30.7,30.7,0,0,1-4.449-4.4,17.714,17.714,0,0,1-3.091-5.4.051.051,0,0,1,.032-.065.052.052,0,0,1,.064.029,19.028,19.028,0,0,0,3.389,5.1,32.539,32.539,0,0,0,4.55,4.109,34.8,34.8,0,0,0,10.777,5.662c.975.32,1.938.577,2.953.849a23.483,23.483,0,0,1,3,1.011,18.715,18.715,0,0,1,5.412,3.312,12.238,12.238,0,0,1,1.127,1.15,4.906,4.906,0,0,1,.917,1.421,3.487,3.487,0,0,1,.232,1.736,3.07,3.07,0,0,1-.233.873,3.228,3.228,0,0,1-.505.74,4.18,4.18,0,0,1-1.384.977,8.2,8.2,0,0,1-1.538.516,16.782,16.782,0,0,1-3.138.374,37.4,37.4,0,0,1-6.227-.384,35.393,35.393,0,0,1-6.082-1.343c-.49-.167-.993-.382-1.448-.584a11.021,11.021,0,0,0-1.446-.477,13.665,13.665,0,0,0-3.017-.385,13.037,13.037,0,0,0-3.007.248,11.873,11.873,0,0,0-2.806,1.042,7.562,7.562,0,0,1-6.343.471,6.938,6.938,0,0,1-2.753-1.792,3.341,3.341,0,0,1-.5-.731,1.562,1.562,0,0,1-.16-1.017l.04-.145.029-.091.053-.163a2.7,2.7,0,0,0,.084-.339,4.608,4.608,0,0,0,.089-.714,18.783,18.783,0,0,0-1.009-5.96,61.523,61.523,0,0,0-2.117-5.808.051.051,0,0,1,.026-.067A.052.052,0,0,1,436.148,343.83Z" transform="translate(-119.577 -88.543)"/><path class="j" d="M279.105,181.917a.768.768,0,1,0-.742-.768A.768.768,0,0,0,279.105,181.917Z" transform="translate(-45.297 -16.094)"/><path class="j" d="M256.081,183.72a.768.768,0,1,0-.742-.768A.768.768,0,0,0,256.081,183.72Z" transform="translate(-34.45 -16.943)"/><path class="j" d="M275.63,193.7c.356.438.651.832,1,1.18a4.851,4.851,0,0,0,.545.492c.193.162.411.289.644.462a1.6,1.6,0,0,1-.841-.114,2.065,2.065,0,0,1-.714-.482,2.377,2.377,0,0,1-.473-.709A1.8,1.8,0,0,1,275.63,193.7Z" transform="translate(-44.008 -22.367)"/><path class="j" d="M281.17,176.747a1.273,1.273,0,0,1-1.4-.61,1.2,1.2,0,0,1,.8.071A1.212,1.212,0,0,1,281.17,176.747Z" transform="translate(-45.957 -14.076)"/><path class="j" d="M255.248,186.55a6.677,6.677,0,0,0,.789.055c.241,0,.472-.034.79-.055a.806.806,0,0,1-.332.323.963.963,0,0,1-.458.116.876.876,0,0,1-.789-.439Z" transform="translate(-34.408 -19)"/><path class="b" d="M421.318,377.31a.768.768,0,1,1,.741-.768A.768.768,0,0,1,421.318,377.31Z" transform="translate(-112.288 -108.136)"/></g></g><g class="e" transform="translate(8043.205 2085.312)"><g class="k"><path d="M455.074,454.585a7.621,7.621,0,0,0,1.363-.061,1.187,1.187,0,0,0,.588,0c1.33.065,2.367.441,2.367-2.266,0-1.838-1.193-3.33-2.666-3.33s-2.665,1.492-2.665,3.33c0,1.477.282,2.052.741,2.251A1,1,0,0,0,455.074,454.585Zm-.425-3.368c.279.387,1,.3,1.627-.185a2.406,2.406,0,0,0,.409-.411l.043.007a1.46,1.46,0,0,1,.18.053,1.676,1.676,0,0,1,.171.082,1.7,1.7,0,0,1,.157.1,1.4,1.4,0,0,1,.133.121.861.861,0,0,1,.106.124,1,1,0,0,1,.079.117.463.463,0,0,1,.054.1c.027.056.044.088.044.088l-.017-.1a.8.8,0,0,0-.023-.112.932.932,0,0,0-.045-.144,1.313,1.313,0,0,0-.072-.163,1.952,1.952,0,0,0-.1-.175,2,2,0,0,0-.141-.171,1.617,1.617,0,0,0-.171-.158,1.708,1.708,0,0,0-.178-.117,1.427,1.427,0,0,0,.067-.168,2.12,2.12,0,0,1,.633.411c.668.667.4,1.443.92.93a1.362,1.362,0,0,0,.2-.25.2.2,0,0,1,.05,0,.242.242,0,0,1,.141.115.613.613,0,0,1,.043.455.521.521,0,0,1-.364.418l-.108.014-.029.107c-.255.927-.945,1.913-1.724,1.913s-1.467-.986-1.724-1.913l-.029-.107-.108-.014a.528.528,0,0,1-.364-.418.613.613,0,0,1,.043-.455A.253.253,0,0,1,454.649,451.217Z"/><path class="l" d="M458.73,454.828a2.039,2.039,0,0,1-.772.822c-.663.339-1.156.616-1.156.616l0,0v-.005l0,0-.006,0v.007s-.492-.274-1.156-.616a2.046,2.046,0,0,1-.772-.822,2.547,2.547,0,0,0-1.665,2.115V458.6l3.593.36h.014l3.593-.36v-1.659A2.553,2.553,0,0,0,458.73,454.828Z"/><path class="h" d="M458.951,451.771a.521.521,0,0,1-.363.418l-.108.014-.029.107c-.256.927-.944,1.913-1.725,1.913s-1.466-.986-1.723-1.913l-.029-.107-.108-.014a.53.53,0,0,1-.365-.418.618.618,0,0,1,.044-.455.256.256,0,0,1,.1-.1c.28.387,1,.3,1.628-.186a2.365,2.365,0,0,0,.409-.41l.043.007a1.461,1.461,0,0,1,.18.053,1.569,1.569,0,0,1,.171.082,1.764,1.764,0,0,1,.157.1,1.741,1.741,0,0,1,.133.121,1.152,1.152,0,0,1,.106.124,1.271,1.271,0,0,1,.079.118.514.514,0,0,1,.054.1l.043.088s0-.034-.016-.1a.9.9,0,0,0-.023-.112,1.019,1.019,0,0,0-.045-.144,1.386,1.386,0,0,0-.072-.163,1.891,1.891,0,0,0-.105-.176c-.044-.054-.086-.116-.139-.17a2,2,0,0,0-.172-.158,1.894,1.894,0,0,0-.178-.118,1.159,1.159,0,0,0,.066-.167,2.124,2.124,0,0,1,.633.41c.669.668.407,1.445.921.931a1.443,1.443,0,0,0,.2-.25.2.2,0,0,1,.05,0,.23.23,0,0,1,.14.115A.613.613,0,0,1,458.951,451.771Z"/></g><rect class="f" width="11.201" height="11.594" rx="0.5" transform="translate(451.194 446.891)"/></g></g></svg>