<svg xmlns="http://www.w3.org/2000/svg" width="16" height="16" viewBox="0 0 16 16"><defs><style>.a{fill:#666669;}</style></defs><g transform="translate(-23 -83)"><g transform="translate(23 83)"><path class="a" d="M7.046,0a7.046,7.046,0,1,0,7.046,7.046A7.054,7.054,0,0,0,7.046,0Zm0,12.791a5.745,5.745,0,1,1,5.745-5.745A5.752,5.752,0,0,1,7.046,12.791Z"/></g><g transform="translate(33.97 93.97)"><path class="a" d="M355.885,354.965l-3.729-3.729a.65.65,0,0,0-.92.92l3.729,3.729a.65.65,0,0,0,.92-.92Z" transform="translate(-351.046 -351.046)"/></g></g></svg>