<svg xmlns="http://www.w3.org/2000/svg" width="12" height="16" viewBox="0 0 12 16"><defs><style>.a{fill:#666669;}</style></defs><g transform="translate(-291 -83)"><path class="a" d="M19.8,10.529,17.471,8.2a.667.667,0,0,0-.943,0L14.2,10.529a.667.667,0,1,0,.943.943l1.2-1.2V23.333a.667.667,0,1,0,1.333,0V10.276l1.2,1.2a.667.667,0,1,0,.943-.943Z" transform="translate(277 75)"/><path class="a" d="M37.8,20.529a.667.667,0,0,0-.943,0l-1.2,1.2V8.667a.667.667,0,0,0-1.333,0V21.724l-1.2-1.2a.667.667,0,0,0-.943.943L34.529,23.8a.666.666,0,0,0,.943,0L37.8,21.471a.667.667,0,0,0,0-.943Z" transform="translate(265 75)"/></g></svg>